# xmcd
#
# Track frame offsets:
#	150
#	10757
#	20209
#	31221
#	43637
#	51733
#	65158
#	75387
#	87431
#	98731
#	108599
#	120921
#	135595
#	147184
#	157446
#
# Disc length: 2242 seconds
#
# Revision: 0
# Processed by: cddbd v1.5.2PL0 Copyright (c) Steve Scherf et al.
# Submitted via: audiograbber 1.83.01
#
DISCID=cf08c00f
DTITLE=Various Artist - Nostalgia - 60-Luku - Popmusiikin Helmiä
DYEAR=2005
DGENRE=Oldies
TTITLE0=Kirka - Yksinäisyys Kolkuttaa
TTITLE1=Kai Lind - Ykkönen
TTITLE2=Ringa Ja Kaksoset - Kun Lähdet Pois
TTITLE3=Kai Hyttinen - Pieleen
TTITLE4=Johnny Forsell - Johnny, Mua Muistathan
TTITLE5=Kivikasvot - Jos Näin On
TTITLE6=Tuulevi Mattila - Norman
TTITLE7=Sirkka Keiski - Mä Heräsin
TTITLE8=Raimo Inkinen - Päivän Vain
TTITLE9=Kari and The Islanders - Älä Hylkää Rakkautta
TTITLE10=Arto Sotavalta - Pienet Nuolet
TTITLE11=Kristian - Näin On
TTITLE12=Kari Häme - Kurkunleikkaajien Yö
TTITLE13=Eddy - Päivänpaiste
TTITLE14=Anki - Paha Tyttö
EXTD=TR.
EXTT0=
EXTT1=
EXTT2=
EXTT3=
EXTT4=
EXTT5=
EXTT6=
EXTT7=
EXTT8=
EXTT9=
EXTT10=
EXTT11=
EXTT12=
EXTT13=
EXTT14=
PLAYORDER=
